<svg width="418" xmlns="http://www.w3.org/2000/svg" height="418" id="screenshot-d8eeda26-f8a0-80ca-8006-3c90280e0e41" viewBox="0 0 418 418" xmlns:xlink="http://www.w3.org/1999/xlink" fill="none" version="1.1"><g id="shape-d8eeda26-f8a0-80ca-8006-3c90280e0e41"><defs><clipPath id="frame-clip-d8eeda26-f8a0-80ca-8006-3c90280e0e41-render-1" class="frame-clip frame-clip-def"><rect rx="0" ry="0" x="0" y="0" width="418" height="418" transform="matrix(1.000000, 0.000000, 0.000000, 1.000000, 0.000000, 0.000000)"/></clipPath></defs><g class="frame-container-wrapper"><g class="frame-container-blur"><g class="frame-container-shadows"><g clip-path="url(#frame-clip-d8eeda26-f8a0-80ca-8006-3c90280e0e41-render-1)" fill="none"><g class="fills" id="fills-d8eeda26-f8a0-80ca-8006-3c90280e0e41"><rect rx="0" ry="0" x="0" y="0" width="418" height="418" transform="matrix(1.000000, 0.000000, 0.000000, 1.000000, 0.000000, 0.000000)" class="frame-background"/></g><g class="frame-children"><g id="shape-d8eeda26-f8a0-80ca-8006-3c97ceed2ea0"><g class="fills" id="fills-d8eeda26-f8a0-80ca-8006-3c97ceed2ea0"><path d="M208.500,59.000C291.011,59.000,358.000,125.989,358.000,208.500C358.000,291.011,291.011,358.000,208.500,358.000C125.989,358.000,59.000,291.011,59.000,208.500C59.000,125.989,125.989,59.000,208.500,59.000ZM128.172,214.450C107.646,214.450,90.983,231.114,90.983,251.639C90.983,272.165,107.646,288.828,128.172,288.828C148.697,288.828,165.361,272.165,165.361,251.639C165.361,231.114,148.697,214.450,128.172,214.450ZM288.828,214.450C268.303,214.450,251.639,231.114,251.639,251.639C251.639,272.165,268.303,288.828,288.828,288.828C309.354,288.828,326.017,272.165,326.017,251.639C326.017,231.114,309.354,214.450,288.828,214.450ZM128.172,119.246C107.646,119.246,90.983,135.910,90.983,156.435C90.983,176.961,107.646,193.624,128.172,193.624C148.697,193.624,165.361,176.961,165.361,156.435C165.361,135.910,148.697,119.246,128.172,119.246ZM208.500,263.540C187.975,263.540,171.311,280.204,171.311,300.729C171.311,321.254,187.975,337.918,208.500,337.918C229.025,337.918,245.689,321.254,245.689,300.729C245.689,280.204,229.025,263.540,208.500,263.540ZM208.500,171.311C187.975,171.311,171.311,187.975,171.311,208.500C171.311,229.025,187.975,245.689,208.500,245.689C229.025,245.689,245.689,229.025,245.689,208.500C245.689,187.975,229.025,171.311,208.500,171.311ZM288.828,119.246C268.303,119.246,251.639,135.910,251.639,156.435C251.639,176.961,268.303,193.624,288.828,193.624C309.354,193.624,326.017,176.961,326.017,156.435C326.017,135.910,309.354,119.246,288.828,119.246ZM208.500,79.082C187.975,79.082,171.311,95.746,171.311,116.271C171.311,136.796,187.975,153.460,208.500,153.460C229.025,153.460,245.689,136.796,245.689,116.271C245.689,95.746,229.025,79.082,208.500,79.082Z" style="fill: rgb(224, 78, 78); fill-opacity: 1;"/></g></g></g></g></g></g></g></g></svg>